<svg width="24" height="24" viewBox="0 0 24 24" fill="none" xmlns="http://www.w3.org/2000/svg">
<path d="M3 3L21 21" stroke="#B8BABF" stroke-width="1.5" stroke-linecap="round" stroke-linejoin="round"/>
<path d="M10.5845 10.5869C10.2092 10.9619 9.99823 11.4707 9.99805 12.0012C9.99786 12.5317 10.2084 13.0406 10.5835 13.4159C10.9585 13.7912 11.4672 14.0021 11.9977 14.0023C12.5283 14.0025 13.0372 13.7919 13.4125 13.4169" stroke="#B8BABF" stroke-width="1.5" stroke-linecap="round" stroke-linejoin="round"/>
<path d="M9.363 5.365C10.2204 5.11972 11.1082 4.99684 12 5C16 5 19.333 7.333 22 12C21.222 13.361 20.388 14.524 19.497 15.488M17.357 17.349C15.726 18.449 13.942 19 12 19C8 19 4.667 16.667 2 12C3.369 9.605 4.913 7.825 6.632 6.659" stroke="#B8BABF" stroke-width="1.5" stroke-linecap="round" stroke-linejoin="round"/>
</svg>
